<svg width="995" height="400" viewBox="0 0 995 400" fill="none" xmlns="http://www.w3.org/2000/svg">
<path d="M463.54 -411.237L267.75 639.687" stroke="#1941E1"/>
<path d="M446.585 -405.021L290.296 638.029" stroke="#1A43E1"/>
<path d="M429.628 -398.913L312.815 636.472" stroke="#1B46E1"/>
<path d="M412.602 -392.733L335.378 634.806" stroke="#1C48E1"/>
<path d="M395.647 -386.54L357.859 633.18" stroke="#1D4BE1"/>
<path d="M378.626 -380.388L380.423 631.5" stroke="#1E4DE1"/>
<path d="M361.694 -374.167L402.975 629.856" stroke="#1F50E0"/>
<path d="M344.673 -368.005L425.484 628.228" stroke="#1F52E0"/>
<path d="M327.695 -361.893L448.064 626.615" stroke="#2055E0"/>
<path d="M310.703 -355.679L470.554 624.967" stroke="#2157E0"/>
<path d="M293.726 -349.521L493.109 623.345" stroke="#225AE0"/>
<path d="M276.779 -343.386L515.616 621.725" stroke="#235CE0"/>
<path d="M259.764 -337.152L538.167 620.056" stroke="#245FE0"/>
<path d="M242.821 -331.031L560.671 618.428" stroke="#2561E0"/>
<path d="M225.811 -324.81L583.248 616.83" stroke="#2664E0"/>
<path d="M208.833 -318.674L605.801 615.173" stroke="#2766E0"/>
<path d="M191.828 -312.513L628.317 613.543" stroke="#2869DF"/>
<path d="M174.877 -306.315L650.861 611.878" stroke="#296BDF"/>
<path d="M157.866 -300.147L673.365 610.245" stroke="#2A6EDF"/>
<path d="M140.887 -294.032L695.922 608.663" stroke="#2B70DF"/>
<path d="M123.891 -287.797L718.445 607.027" stroke="#2C73DF"/>
<path d="M106.917 -281.661L740.986 605.366" stroke="#2C75DF"/>
<path d="M89.9521 -275.521L763.536 603.723" stroke="#2D78DF"/>
<path d="M72.9541 -269.307L786.043 602.079" stroke="#2E7ADF"/>
<path d="M55.9805 -263.15L808.596 600.43" stroke="#2F7DDF"/>
<path d="M38.9934 -256.949L831.128 598.846" stroke="#307FDF"/>
<path d="M22.0176 -250.812L853.665 597.188" stroke="#3182DE"/>
<path d="M5.00879 -244.652L876.184 595.568" stroke="#3284DE"/>
<path d="M-11.9443 -238.453L898.723 593.907" stroke="#3387DE"/>
<path d="M-28.9521 -232.295L921.242 592.274" stroke="#3489DE"/>
<path d="M-45.9275 -226.167L943.806 590.693" stroke="#358CDE"/>
<path d="M-62.9316 -219.936L966.368 589.016" stroke="#368EDE"/>
<path d="M-79.8848 -213.794L988.87 587.401" stroke="#3791DE"/>
<path d="M-96.8613 -207.653L1011.41 585.753" stroke="#3893DE"/>
<path d="M-113.859 -201.435L1033.92 584.112" stroke="#3996DE"/>
<path d="M-130.825 -195.297L1056.46 582.462" stroke="#3998DE"/>
<path d="M-147.818 -189.096L1078.99 580.88" stroke="#3A9BDD"/>
<path d="M-164.792 -182.952L1101.53 579.235" stroke="#3B9DDD"/>
<path d="M-181.816 -176.781L1124.1 577.587" stroke="#3CA0DD"/>
<path d="M-198.758 -170.581L1146.59 575.943" stroke="#3DA2DD"/>
</svg>
