<svg xmlns="http://www.w3.org/2000/svg" width="18.279" height="12.655" viewBox="0 0 18.279 12.655">
  <g id="mail_email_e-mail_letter" data-name="mail email e-mail letter" transform="translate(-3 -7)">
    <path id="Path_90" data-name="Path 90" d="M20.576,13a.7.7,0,0,0-.7.7v5.624a.7.7,0,0,1-.7.7H5.109a.7.7,0,0,1-.7-.7V13.7A.7.7,0,1,0,3,13.7v5.624a2.112,2.112,0,0,0,2.109,2.109H19.17a2.112,2.112,0,0,0,2.109-2.109V13.7A.7.7,0,0,0,20.576,13Z" transform="translate(0 -1.782)" fill="$$white"/>
    <path id="Path_91" data-name="Path 91" d="M11.775,15.3a.7.7,0,0,0,.844,0l8.3-6.229a.7.7,0,0,0,.211-.865,2.151,2.151,0,0,0-.415-.584A2.109,2.109,0,0,0,19.227,7H5.166a2.109,2.109,0,0,0-1.49.619,2.151,2.151,0,0,0-.415.584.7.7,0,0,0,.211.865ZM5.166,8.406H19.227a.633.633,0,0,1,.2,0L12.2,13.855,4.969,8.406a.633.633,0,0,1,.2,0Z" transform="translate(-0.057)" fill="$$white"/>
  </g>
</svg>
