<svg id="_45-Men" xmlns="http://www.w3.org/2000/svg" width="113.88" height="116.556" viewBox="0 0 113.88 116.556">
  <g id="g1849" transform="translate(15.487 0)">
    <path id="path1847" d="M-50.807-95.31a8.382,8.382,0,0,1,8.372,8.373,8.382,8.382,0,0,1-8.372,8.373,8.382,8.382,0,0,1-8.373-8.373,8.382,8.382,0,0,1,8.373-8.373m0,23.7A15.342,15.342,0,0,0-35.482-86.938a15.342,15.342,0,0,0-15.324-15.324A15.342,15.342,0,0,0-66.131-86.938,15.342,15.342,0,0,0-50.807-71.613" transform="translate(66.131 102.262)" fill="$$white"/>
  </g>
  <g id="g1853" transform="translate(0 35.809)">
    <path id="path1851" d="M-181.255-144.9a3.243,3.243,0,0,1-3.24,3.239,3.243,3.243,0,0,1-3.24-3.239v-8.693a3.476,3.476,0,0,0-3.476-3.476,3.476,3.476,0,0,0-3.476,3.476v33.765a10.359,10.359,0,0,1-3.054,7.373,10.36,10.36,0,0,1-7.374,3.054,10.36,10.36,0,0,1-7.373-3.054,10.359,10.359,0,0,1-3.054-7.374v-33.765a3.476,3.476,0,0,0-3.476-3.476,3.476,3.476,0,0,0-3.476,3.476v8.693a3.243,3.243,0,0,1-3.24,3.239,3.243,3.243,0,0,1-3.24-3.239V-159.12a17.011,17.011,0,0,1,5.015-12.108,17.011,17.011,0,0,1,12.108-5.015h13.474a17.011,17.011,0,0,1,12.108,5.015,17.011,17.011,0,0,1,5.015,12.108Zm-17.123-38.3h-13.474a23.916,23.916,0,0,0-17.023,7.051,23.916,23.916,0,0,0-7.051,17.023V-144.9a10.2,10.2,0,0,0,10.192,10.191,10.146,10.146,0,0,0,3.24-.531v15.412a17.266,17.266,0,0,0,5.09,12.289,17.266,17.266,0,0,0,12.29,5.09,17.266,17.266,0,0,0,12.289-5.09,17.266,17.266,0,0,0,5.09-12.289v-15.412a10.148,10.148,0,0,0,3.24.531A10.2,10.2,0,0,0-174.3-144.9V-159.12a23.917,23.917,0,0,0-7.051-17.023,23.916,23.916,0,0,0-17.023-7.051" transform="translate(235.926 183.195)" fill="$$white"/>
  </g>
  <g id="g1857" transform="translate(70.829 15.366)">
    <path id="path1855" d="M-27.244-53.613a4.293,4.293,0,0,1,3.055-1.266h8.253a4.293,4.293,0,0,1,3.055,1.266,4.292,4.292,0,0,1,1.265,3.056A4.293,4.293,0,0,1-12.88-47.5a4.293,4.293,0,0,1-3.056,1.265h-8.253A4.293,4.293,0,0,1-27.243-47.5a4.294,4.294,0,0,1-1.266-3.056,4.293,4.293,0,0,1,1.265-3.055m3.055,14.328h8.253a11.2,11.2,0,0,0,7.971-3.3,11.2,11.2,0,0,0,3.3-7.971,11.2,11.2,0,0,0-3.3-7.971,11.2,11.2,0,0,0-7.971-3.3h-8.253a11.2,11.2,0,0,0-7.971,3.3,11.2,11.2,0,0,0-3.3,7.971,11.2,11.2,0,0,0,3.3,7.971,11.2,11.2,0,0,0,7.971,3.3" transform="translate(35.461 61.831)" fill="$$white"/>
  </g>
  <g id="g1861" transform="translate(70.83 47.259)">
    <path id="path1859" d="M-105.355-14.406h-20.5a4.326,4.326,0,0,1-4.321-4.321,4.326,4.326,0,0,1,4.321-4.321h20.5a4.326,4.326,0,0,1,4.321,4.321,4.326,4.326,0,0,1-4.321,4.321m0-15.594h-20.5a11.285,11.285,0,0,0-11.273,11.273A11.285,11.285,0,0,0-125.859-7.454h20.5A11.285,11.285,0,0,0-94.082-18.727,11.285,11.285,0,0,0-105.355-30" transform="translate(137.132 30)" fill="$$white"/>
  </g>
  <g id="g1865" transform="translate(72.466 91.763)">
    <path id="path1863" d="M-49.7-30H-61.22A3.476,3.476,0,0,0-64.7-26.524a3.476,3.476,0,0,0,3.476,3.476H-49.7a3.476,3.476,0,0,0,3.476-3.476A3.476,3.476,0,0,0-49.7-30" transform="translate(64.696 30)" fill="$$white"/>
  </g>
  <g id="g1869" transform="translate(72.466 79.15)">
    <path id="path1867" d="M-85.16-30h-22.21a3.476,3.476,0,0,0-3.476,3.476,3.476,3.476,0,0,0,3.476,3.476h22.21a3.476,3.476,0,0,0,3.476-3.476A3.476,3.476,0,0,0-85.16-30" transform="translate(110.846 30)" fill="$$white"/>
  </g>
</svg>
