<svg xmlns="http://www.w3.org/2000/svg" width="107.305" height="74.968" viewBox="0 0 107.305 74.968">
  <path id="_8664955_box_open_icon" data-name="8664955_box_open_icon" d="M38.277,62.854l15.375-25.5L11.7,32.009A2.684,2.684,0,0,0,8.925,33.5L.293,50.732a2.722,2.722,0,0,0,1.683,3.856l33.047,9.478A2.883,2.883,0,0,0,38.277,62.854Zm68.742-12.122L98.386,33.5A2.7,2.7,0,0,0,95.6,32.007L53.651,37.352l15.382,25.5a2.759,2.759,0,0,0,3.1,1.217L105.317,54.6A2.753,2.753,0,0,0,107.019,50.732ZM71.39,69.762a8.154,8.154,0,0,1-6.958-3.9L53.651,48.083,42.887,65.855a8.155,8.155,0,0,1-6.958,3.923,7.952,7.952,0,0,1-2.222-.312L10.729,62.921V92.447A5.315,5.315,0,0,0,14.8,97.616l36.232,9.024a10.959,10.959,0,0,0,5.2,0l36.283-9.024A5.222,5.222,0,0,0,96.573,92.6V62.921L73.6,69.443A8.116,8.116,0,0,1,71.39,69.762Z" transform="translate(0.001 -31.984)" fill="#1e40ca"/>
</svg>
