<svg id="_17-Hexagon" xmlns="http://www.w3.org/2000/svg" width="112.806" height="120.528" viewBox="0 0 112.806 120.528">
  <g id="g2366" transform="translate(29.024 29.195)">
    <path id="path2364" d="M-154.916-38.672l-20.317,11.728L-195.55-38.672v-23.46l20.317-11.73,20.317,11.73Zm7.062,2.039V-64.171a3.531,3.531,0,0,0-1.766-3.058L-173.467-81A3.531,3.531,0,0,0-177-81l-23.848,13.769a3.531,3.531,0,0,0-1.766,3.058v27.538a3.531,3.531,0,0,0,1.766,3.058L-177-19.808a3.529,3.529,0,0,0,1.765.473,3.53,3.53,0,0,0,1.765-.473l23.848-13.767a3.531,3.531,0,0,0,1.766-3.058" transform="translate(202.612 81.471)" fill="$$white"/>
  </g>
  <g id="g2370" transform="translate(60.348 82.107)">
    <path id="path2368" d="M-22.938-11.537V-22.316L-4.951-32.7l9.335,5.391Zm36.15-18.833-16.4-9.468a3.532,3.532,0,0,0-3.531,0L-28.234-27.412A3.531,3.531,0,0,0-30-24.354V-5.421a3.531,3.531,0,0,0,1.766,3.058,3.528,3.528,0,0,0,1.766.473A3.528,3.528,0,0,0-24.7-2.363L13.212-24.253a3.531,3.531,0,0,0,1.766-3.058,3.531,3.531,0,0,0-1.766-3.058" transform="translate(30 40.31)" fill="$$white"/>
  </g>
  <g id="g2374" transform="translate(7.477 82.107)">
    <path id="path2372" d="M-123.148-11.537-150.47-27.312l9.335-5.39,17.987,10.386Zm5.3-15.876-21.518-12.425a3.531,3.531,0,0,0-3.531,0l-16.4,9.468a3.531,3.531,0,0,0-1.766,3.058,3.53,3.53,0,0,0,1.766,3.058l37.915,21.891a3.528,3.528,0,0,0,1.766.473,3.528,3.528,0,0,0,1.766-.473,3.531,3.531,0,0,0,1.766-3.058V-24.355a3.531,3.531,0,0,0-1.766-3.058" transform="translate(161.063 40.311)" fill="$$white"/>
  </g>
  <g id="g2378" transform="translate(0 34.842)">
    <path id="path2376" d="M-53.258-27.4l-9.335,5.39V-53.563l9.335,5.389Zm7.062,2.039V-50.213a3.531,3.531,0,0,0-1.766-3.058l-16.4-9.466a3.531,3.531,0,0,0-3.531,0,3.531,3.531,0,0,0-1.765,3.058V-15.9a3.532,3.532,0,0,0,1.766,3.058,3.531,3.531,0,0,0,1.766.473,3.528,3.528,0,0,0,1.766-.473l16.4-9.468A3.53,3.53,0,0,0-46.2-25.365" transform="translate(69.655 63.21)" fill="$$white"/>
  </g>
  <g id="g2382" transform="translate(89.346 34.842)">
    <path id="path2380" d="M-53.258.884l-9.335-5.39v-20.77l9.335-5.389Zm5.3-40.723a3.531,3.531,0,0,0-3.531,0l-16.4,9.466a3.531,3.531,0,0,0-1.766,3.058V-2.468A3.531,3.531,0,0,0-67.891.59l16.4,9.468a3.528,3.528,0,0,0,1.766.473,3.531,3.531,0,0,0,1.766-.473A3.531,3.531,0,0,0-46.2,7V-36.781a3.531,3.531,0,0,0-1.766-3.058" transform="translate(69.656 40.312)" fill="$$white"/>
  </g>
  <g id="g2386" transform="translate(7.477 0)">
    <path id="path2384" d="M-123.148-111.9v10.779l-17.987,10.384-9.335-5.389ZM-159.3-93.069l16.4,9.466a3.53,3.53,0,0,0,1.765.473,3.531,3.531,0,0,0,1.766-.473l21.518-12.422a3.531,3.531,0,0,0,1.766-3.058v-18.934a3.531,3.531,0,0,0-1.766-3.058,3.53,3.53,0,0,0-3.531,0L-159.3-99.185a3.531,3.531,0,0,0-1.766,3.058,3.531,3.531,0,0,0,1.766,3.058" transform="translate(161.063 121.549)" fill="$$white"/>
  </g>
  <g id="g2390" transform="translate(60.348 0)">
    <path id="path2388" d="M-22.938-111.9,4.384-96.128l-9.335,5.389-17.987-10.384Zm-5.3,15.876L-6.716-83.6a3.528,3.528,0,0,0,1.766.473A3.53,3.53,0,0,0-3.185-83.6l16.4-9.466a3.531,3.531,0,0,0,1.766-3.058,3.531,3.531,0,0,0-1.766-3.058L-24.7-121.076a3.531,3.531,0,0,0-3.531,0A3.531,3.531,0,0,0-30-118.018v18.934a3.531,3.531,0,0,0,1.766,3.058" transform="translate(30 121.549)" fill="$$white"/>
  </g>
</svg>
