<svg id="_11-Analysis" xmlns="http://www.w3.org/2000/svg" width="121.466" height="114.229" viewBox="0 0 121.466 114.229">
  <g id="g2564" transform="translate(0 0)">
    <path id="path2562" d="M-350.393,70.485a4.274,4.274,0,0,1-3.044,1.261,4.277,4.277,0,0,1-3.046-1.262c-2.012-2.01-4.277-4.276-6.288-6.288a4.279,4.279,0,0,1-1.262-3.045,4.271,4.271,0,0,1,1.231-3.014l.031-.031a4.276,4.276,0,0,1,3.044-1.261,4.276,4.276,0,0,1,3.044,1.261l0,0c2.011,2.01,4.277,4.275,6.288,6.288a4.279,4.279,0,0,1,1.262,3.045,4.279,4.279,0,0,1-1.263,3.045m-63.04-25.112a26.852,26.852,0,0,1,0-37.93,26.641,26.641,0,0,1,18.965-7.85A26.642,26.642,0,0,1-375.5,7.443a26.851,26.851,0,0,1,0,37.93,26.643,26.643,0,0,1-18.965,7.85,26.642,26.642,0,0,1-18.965-7.85m-5.146-62.548a5.35,5.35,0,0,1-5.344-5.344,5.35,5.35,0,0,1,5.344-5.344,5.35,5.35,0,0,1,5.344,5.344,5.35,5.35,0,0,1-5.344,5.344M-450.631,28.3a5.35,5.35,0,0,1-5.344-5.344,5.35,5.35,0,0,1,5.344-5.344,5.35,5.35,0,0,1,5.344,5.344,5.35,5.35,0,0,1-5.344,5.344m96.156-38.635a5.35,5.35,0,0,1,5.344,5.344A5.351,5.351,0,0,1-354.475.353a5.351,5.351,0,0,1-5.344-5.346,5.35,5.35,0,0,1,5.344-5.344m2.963,63.275a11.538,11.538,0,0,0-8.215-3.4,11.573,11.573,0,0,0-4.985,1.118l-3.025-3.024a34.216,34.216,0,0,0,2.372-39.054l3.526-3.285a12.58,12.58,0,0,0,7.364,2.373A12.67,12.67,0,0,0-341.82-4.993a12.669,12.669,0,0,0-12.655-12.654A12.669,12.669,0,0,0-367.129-4.993a12.587,12.587,0,0,0,.815,4.462l-3.539,3.3c-.158-.165-.317-.33-.48-.492a33.9,33.9,0,0,0-24.134-9.991,34.739,34.739,0,0,0-3.811.211l-8.757-9.837a12.577,12.577,0,0,0,1.111-5.176,12.669,12.669,0,0,0-12.654-12.654,12.668,12.668,0,0,0-12.654,12.654,12.582,12.582,0,0,0,2.2,7.12L-447.47,10.7a12.629,12.629,0,0,0-3.161-.4,12.669,12.669,0,0,0-12.655,12.654,12.669,12.669,0,0,0,12.655,12.654,12.669,12.669,0,0,0,12.654-12.654,12.6,12.6,0,0,0-3.237-8.441L-423.335-10.8a12.584,12.584,0,0,0,4.756.931,12.574,12.574,0,0,0,6.7-1.926l5.515,6.195A33.994,33.994,0,0,0-418.6,2.274h0a34.171,34.171,0,0,0,0,48.268,33.9,33.9,0,0,0,24.134,9.991,33.877,33.877,0,0,0,21.6-7.7l2.871,2.87a11.556,11.556,0,0,0-1.348,5.443,11.542,11.542,0,0,0,3.4,8.213c2.013,2.014,4.279,4.28,6.29,6.289a11.538,11.538,0,0,0,8.214,3.4,11.54,11.54,0,0,0,8.215-3.4,11.543,11.543,0,0,0,3.4-8.213,11.543,11.543,0,0,0-3.4-8.213c-2.012-2.013-4.278-4.279-6.29-6.289" transform="translate(463.286 35.173)" fill="$$white"/>
  </g>
  <g id="g2568" transform="translate(80.117 52.82)">
    <path id="path2566" d="M-11.345-67.15A3.655,3.655,0,0,0-15-63.495v9.053a3.655,3.655,0,0,0,3.655,3.655A3.655,3.655,0,0,0-7.69-54.442v-9.053a3.655,3.655,0,0,0-3.655-3.655" transform="translate(15 67.15)" fill="$$white"/>
  </g>
  <g id="g2572" transform="translate(51.696 52.738)">
    <path id="path2570" d="M-11.345-67.83A3.655,3.655,0,0,0-15-64.175v9.218A3.655,3.655,0,0,0-11.345-51.3,3.655,3.655,0,0,0-7.69-54.956v-9.218a3.655,3.655,0,0,0-3.655-3.655" transform="translate(15 67.83)" fill="$$white"/>
  </g>
  <g id="g2576" transform="translate(65.906 46.017)">
    <path id="path2574" d="M-11.345-122.99A3.655,3.655,0,0,0-15-119.335v22.66a3.655,3.655,0,0,0,3.655,3.655A3.655,3.655,0,0,0-7.69-96.675v-22.66a3.655,3.655,0,0,0-3.655-3.655" transform="translate(15 122.99)" fill="$$white"/>
  </g>
</svg>
