<svg xmlns="http://www.w3.org/2000/svg" width="33.737" height="33.016" viewBox="0 0 33.737 33.016">
  <path id="_7088613_database_diagram_chart_data_statistics_icon" data-name="7088613_database_diagram_chart_data_statistics_icon" d="M87.821,77.032h-3.5V71.416a.476.476,0,0,0-.476-.476H71.887V65.4h6.537a.476.476,0,0,0,.476-.476V59.346a.476.476,0,0,0-.476-.476H64.4a.476.476,0,0,0-.476.476v5.578a.476.476,0,0,0,.476.476H70.93V70.94H58.981a.476.476,0,0,0-.476.476v5.622H55.036a.476.476,0,0,0-.476.476v13.9a.476.476,0,0,0,.476.476h7.889a.476.476,0,0,0,.476-.476v-13.9a.476.476,0,0,0-.476-.476H59.454V71.892H70.935v5.147H67.466a.476.476,0,0,0-.476.476v13.9a.476.476,0,0,0,.476.476h7.89a.476.476,0,0,0,.476-.476v-13.9a.476.476,0,0,0-.476-.476H71.887V71.892H83.365v5.141H79.932a.476.476,0,0,0-.476.476V91.4a.476.476,0,0,0,.476.476H87.82A.476.476,0,0,0,88.3,91.4v-13.9a.476.476,0,0,0-.476-.476ZM77.947,64.447h-7.5V59.822h7.5Zm-13.073,0V59.822H69.5v4.625ZM62.446,90.933H55.513V81.128h6.936Zm0-10.758H55.513V77.99h6.936ZM74.88,90.933H67.943V81.128H74.88Zm0-10.758H67.943V77.99H74.88Zm5.527-2.19h3.407c.009,0,.018.005.028.005s.018-.005.028-.005h3.475V80.17H80.409Zm6.935,12.942H80.409V81.122h6.935Z" transform="translate(-54.56 -58.87)" fill="$$white"/>
</svg>
