<svg id="_7088619_database_finding_chart_data_searching_icon" data-name="7088619_database_finding_chart_data_searching_icon" xmlns="http://www.w3.org/2000/svg" width="35.31" height="31.58" viewBox="0 0 35.31 31.58">
  <path id="Path_230" data-name="Path 230" d="M145.321,108.452a9.635,9.635,0,0,0-16.407,6.765,9.474,9.474,0,0,0,9.505,9.571,9.664,9.664,0,0,0,9.651-9.568A9.433,9.433,0,0,0,145.321,108.452Zm-.746,12.9a8.692,8.692,0,0,1-12.274,0,8.533,8.533,0,0,1-2.489-6.128,8.762,8.762,0,0,1,8.755-8.669,8.576,8.576,0,0,1,8.6,8.662,8.692,8.692,0,0,1-2.595,6.133Z" transform="translate(-121.316 -101.77)" fill="$$white"/>
  <path id="Path_231" data-name="Path 231" d="M186.537,154.857a5.766,5.766,0,1,0,1.716,4.1A5.8,5.8,0,0,0,186.537,154.857Zm-7.57,7.571a4.911,4.911,0,0,1,0-6.933,4.842,4.842,0,0,1,3.016-1.392v4.858a.449.449,0,0,0,.132.317l3.435,3.435A4.893,4.893,0,0,1,178.967,162.428Zm7.221-.351-3.3-3.306V154.1a4.844,4.844,0,0,1,3.016,1.392A4.9,4.9,0,0,1,186.188,162.077Z" transform="translate(-165.26 -145.514)" fill="$$white"/>
  <path id="Path_232" data-name="Path 232" d="M67.574,83.917,60.64,76.983a12.51,12.51,0,0,0-1.57-15.774c-.09-.091-.189-.169-.282-.257l3.406-3.411h5.139a.451.451,0,0,0,0-.9H62.012a.45.45,0,0,0-.317.132L58.12,60.348A12.566,12.566,0,0,0,41.285,78.963c.244.244.5.475.756.694l-3.429,3.43H33.471a.451.451,0,1,0,0,.9H38.8a.454.454,0,0,0,.317-.131l3.639-3.639a12.5,12.5,0,0,0,14.32.333l6.937,6.933a2.521,2.521,0,1,0,3.565-3.565Zm-.638,2.931a1.658,1.658,0,0,1-2.288,0l-7.2-7.2a.452.452,0,0,0-.317-.132.44.44,0,0,0-.259.083A11.666,11.666,0,1,1,59.69,76.78a.451.451,0,0,0,.05.579l7.2,7.2A1.621,1.621,0,0,1,66.936,86.848Z" transform="translate(-33.002 -56.64)" fill="$$white"/>
  <path id="Path_233" data-name="Path 233" d="M417.67,90.635h-3.728a.451.451,0,1,0,0,.9h3.728a.451.451,0,0,0,0-.9Z" transform="translate(-383.334 -87.942)" fill="$$white"/>
  <path id="Path_234" data-name="Path 234" d="M33.691,357.411h3.728a.451.451,0,1,0,0-.9H33.691a.451.451,0,1,0,0,.9Z" transform="translate(-33.221 -332.757)" fill="$$white"/>
</svg>
