<svg xmlns="http://www.w3.org/2000/svg" width="39.364" height="39.367" viewBox="0 0 39.364 39.367">
  <path id="_7055175_consultation_target_mission_arrow_goal_icon" data-name="7055175_consultation_target_mission_arrow_goal_icon" d="M69.458,35.435a.436.436,0,0,0-.442-.243l-5.2.592,0-.006-.007-.005.592-5.2a.436.436,0,0,0-.741-.357l-6,6a.436.436,0,0,0-.125.261l-.639,5.6L55.382,43.6a14.99,14.99,0,1,0,.616.616L57.512,42.7l5.6-.638a.436.436,0,0,0,.261-.125l6-6A.436.436,0,0,0,69.458,35.435Zm-6.564.645L60.677,38.3l.5-4.365,2.217-2.216Zm-4.516.647,1.808-1.807-.5,4.366-1.806,1.807Zm.831,17.754a14.121,14.121,0,1,1-4.448-10.268l-3.027,3.023a9.836,9.836,0,1,0,.616.616l3.025-3.025A14.049,14.049,0,0,1,59.209,54.482Zm-14.763.662a.436.436,0,0,0,.616,0l3.125-3.125a3.953,3.953,0,1,1-.616-.616l-3.125,3.125A.436.436,0,0,0,44.446,55.144Zm3.746-4.361a4.823,4.823,0,1,0,.616.616l2.927-2.93a8.963,8.963,0,1,1-.61-.614Zm14.672-9.572-4.365.5L60.305,39.9l4.364-.5Zm2.8-2.8-4.366.5L63.511,36.7l4.366-.5Z" transform="translate(-30.14 -30.089)" fill="$$white"/>
</svg>
