<svg id="_7055169_consultation_idea_bulb_target_goal_icon" data-name="7055169_consultation_idea_bulb_target_goal_icon" xmlns="http://www.w3.org/2000/svg" width="39.364" height="37.594" viewBox="0 0 39.364 37.594">
  <path id="Path_220" data-name="Path 220" d="M146.547,136.87c-5.068,0-7.618,2.259-8.858,4.155a9.6,9.6,0,0,0-.779,8.853,5.924,5.924,0,0,0,.9,1.46,16.492,16.492,0,0,1,3.651,7.868l.31,1.852v4.488a.433.433,0,0,0,.433.433h8.683a.433.433,0,0,0,.433-.433v-4.485l.31-1.852a16.5,16.5,0,0,1,3.651-7.871,5.924,5.924,0,0,0,.9-1.465,9.586,9.586,0,0,0-.779-8.853C154.165,139.132,151.614,136.87,146.547,136.87Zm0,28.245h-3.909v-3.658h7.817v3.658Zm-.331-14.2a.276.276,0,0,0,.029.027l.023.023h.005a.357.357,0,0,0,.048.033l.023.015a.492.492,0,0,0,.055.023c.008,0,.016.007.023.009a.432.432,0,0,0,.06.013h.022a.363.363,0,0,0,.061,0h.021a.427.427,0,0,0,.058-.01l.025-.005.047-.018.032-.014.035-.023a.367.367,0,0,0,.038-.026l.006,0,.024-.024c.009-.009.018-.016.027-.026l2.291-2.706-1.711,12.379H145.64L143.929,148.2Zm9.17-1.385a5.045,5.045,0,0,1-.768,1.251,17.364,17.364,0,0,0-3.841,8.283l-.255,1.525h-2.19l1.9-13.741a.433.433,0,0,0-.759-.338l-2.924,3.452-2.924-3.453a.433.433,0,0,0-.759.338l1.9,13.741h-2.19l-.26-1.525a17.357,17.357,0,0,0-3.842-8.283,5.069,5.069,0,0,1-.767-1.251,8.848,8.848,0,0,1,.706-8.034c1.125-1.716,3.454-3.762,8.137-3.762s7.008,2.046,8.137,3.762a8.833,8.833,0,0,1,.7,8.034Z" transform="translate(-126.865 -128.385)" fill="$$white"/>
  <path id="Path_221" data-name="Path 221" d="M77.484,107.282a.433.433,0,1,0-.612.612l3.177,3.177a.433.433,0,0,0,.612-.612Z" transform="translate(-72.581 -101.242)" fill="$$white"/>
  <path id="Path_222" data-name="Path 222" d="M33.566,279.9H29.073a.433.433,0,0,0,0,.866h4.493a.433.433,0,0,0,0-.866Z" transform="translate(-28.64 -259.033)" fill="$$white"/>
  <path id="Path_223" data-name="Path 223" d="M251.433,44.209a.433.433,0,0,0,.433-.433V39.283a.433.433,0,1,0-.866,0v4.494A.433.433,0,0,0,251.433,44.209Z" transform="translate(-231.751 -38.85)" fill="$$white"/>
  <path id="Path_224" data-name="Path 224" d="M392.453,107.283a.433.433,0,0,0-.612,0l-3.179,3.177a.433.433,0,1,0,.612.612l3.177-3.177A.433.433,0,0,0,392.453,107.283Z" transform="translate(-357.38 -101.243)" fill="$$white"/>
  <path id="Path_225" data-name="Path 225" d="M426.386,279.9h-4.493a.433.433,0,1,0,0,.866h4.493a.433.433,0,1,0,0-.866Z" transform="translate(-387.454 -259.033)" fill="$$white"/>
</svg>
