<svg width="15" height="31" viewBox="0 0 15 31" fill="none" xmlns="http://www.w3.org/2000/svg">
<path d="M2.974 18.716H4.408C4.724 18.716 4.984 18.75 5.188 18.818C5.396 18.886 5.558 18.978 5.674 19.094C5.794 19.21 5.876 19.346 5.92 19.502C5.968 19.654 5.992 19.816 5.992 19.988C5.992 20.168 5.968 20.34 5.92 20.504C5.872 20.668 5.788 20.812 5.668 20.936C5.548 21.06 5.386 21.158 5.182 21.23C4.978 21.302 4.72 21.338 4.408 21.338H3.52V23H2.974V18.716ZM4.402 20.87C4.61 20.87 4.782 20.85 4.918 20.81C5.054 20.77 5.16 20.712 5.236 20.636C5.312 20.56 5.364 20.47 5.392 20.366C5.424 20.258 5.44 20.138 5.44 20.006C5.44 19.87 5.424 19.75 5.392 19.646C5.36 19.542 5.304 19.456 5.224 19.388C5.144 19.32 5.036 19.27 4.9 19.238C4.768 19.202 4.6 19.184 4.396 19.184H3.52V20.87H4.402ZM6.67127 18.716H8.10527C8.42127 18.716 8.68127 18.75 8.88527 18.818C9.09327 18.886 9.25527 18.978 9.37127 19.094C9.49127 19.21 9.57327 19.346 9.61727 19.502C9.66527 19.654 9.68927 19.816 9.68927 19.988C9.68927 20.168 9.66527 20.34 9.61727 20.504C9.56927 20.668 9.48527 20.812 9.36527 20.936C9.24527 21.06 9.08327 21.158 8.87927 21.23C8.67527 21.302 8.41727 21.338 8.10527 21.338H7.21727V23H6.67127V18.716ZM8.09927 20.87C8.30727 20.87 8.47927 20.85 8.61527 20.81C8.75127 20.77 8.85727 20.712 8.93327 20.636C9.00927 20.56 9.06127 20.47 9.08927 20.366C9.12127 20.258 9.13727 20.138 9.13727 20.006C9.13727 19.87 9.12127 19.75 9.08927 19.646C9.05727 19.542 9.00127 19.456 8.92127 19.388C8.84127 19.32 8.73327 19.27 8.59727 19.238C8.46527 19.202 8.29727 19.184 8.09327 19.184H7.21727V20.87H8.09927ZM11.4244 19.208H10.0084V18.716H13.3984V19.208H11.9824V23H11.4244V19.208Z" fill="#1F40E6"/>
<path fill-rule="evenodd" clip-rule="evenodd" d="M7.03125 0.5V10.2929L3.14396 6.14645C2.9609 5.95118 2.6641 5.95118 2.48104 6.14645C2.29799 6.34171 2.29799 6.65829 2.48104 6.85355L7.16854 11.8536C7.25936 11.9504 7.37816 11.9992 7.49719 12L7.5 12L7.50281 12C7.56534 11.9996 7.62498 11.9861 7.67943 11.9621C7.73472 11.9377 7.78651 11.9015 7.83146 11.8536L12.519 6.85355C12.702 6.65829 12.702 6.34171 12.519 6.14645C12.3359 5.95118 12.0391 5.95118 11.856 6.14645L7.96875 10.2929V0.5C7.96875 0.223858 7.75888 0 7.5 0C7.24112 0 7.03125 0.223858 7.03125 0.5ZM0.46875 15.5C0.46875 15.2239 0.678617 15 0.9375 15H14.0625C14.3214 15 14.5312 15.2239 14.5312 15.5C14.5312 15.7761 14.3214 16 14.0625 16H0.9375C0.678617 16 0.46875 15.7761 0.46875 15.5Z" fill="#2251FF"/>
</svg>
