<svg id="_7088605_database_cloud_computing_data_transfer_icon" data-name="7088605_database_cloud_computing_data_transfer_icon" xmlns="http://www.w3.org/2000/svg" width="35.601" height="36.413" viewBox="0 0 35.601 36.413">
  <path id="Path_226" data-name="Path 226" d="M69.462,48.134a.463.463,0,0,0,0-.925,3.092,3.092,0,0,1,.029-6.184h.01a.45.45,0,0,0,.415-.23.464.464,0,0,0-.006-.475,4.791,4.791,0,1,1,8.871-2.577.462.462,0,0,0,.743.36,3.054,3.054,0,0,1,1.863-.641,3.1,3.1,0,0,1,3.094,3.094,3.06,3.06,0,0,1-.32,1.342.467.467,0,0,0,.077.515.462.462,0,0,0,.507.117,2.42,2.42,0,1,1,.87,4.677.463.463,0,1,0,0,.925,3.348,3.348,0,1,0-.316-6.681,3.879,3.879,0,0,0,.107-.894,4.024,4.024,0,0,0-4.02-4.02,3.922,3.922,0,0,0-1.748.407,5.722,5.722,0,0,0-11.377.871,5.63,5.63,0,0,0,.513,2.335,4.02,4.02,0,0,0,.686,7.981Z" transform="translate(-63.147 -32.09)" fill="$$white"/>
  <path id="Path_227" data-name="Path 227" d="M149.593,156a.463.463,0,0,0-.463.463v6.494l-1.1-1.1a.463.463,0,1,0-.65.65l1.889,1.889a.463.463,0,0,0,.654,0l1.886-1.889a.463.463,0,1,0-.65-.65l-1.1,1.1v-6.5a.462.462,0,0,0-.465-.459Z" transform="translate(-138.262 -145.926)" fill="$$white"/>
  <path id="Path_228" data-name="Path 228" d="M217.441,164.524a.463.463,0,0,0,.463-.463v-6.5l1.1,1.1a.457.457,0,0,0,.325.136.462.462,0,0,0,.325-.789l-1.889-1.89a.463.463,0,0,0-.65,0l-1.89,1.89a.463.463,0,0,0,.65.65l1.1-1.1v6.494a.463.463,0,0,0,.465.47Z" transform="translate(-200.658 -145.914)" fill="$$white"/>
  <path id="Path_229" data-name="Path 229" d="M72.776,288.929l-1.482-5.014a.462.462,0,0,0-.23-.28.47.47,0,0,0-.363-.027l-1.741.593-.813-2.636a7.339,7.339,0,0,0-4.85-4.849l-5.311-1.641a8.055,8.055,0,0,0-4.654-.054c-2.141.627-4.858,1.793-5.951,3.785L39.8,276.961a2.114,2.114,0,0,0-1.377,3.973l11.008,5.034a3.558,3.558,0,0,0,1.927.3l9.814-1.22.554,1.491a.437.437,0,0,0,.081.106l-2.439.831a.462.462,0,0,0-.294.569l.894,3.02a.461.461,0,0,0,.443.332.493.493,0,0,0,.131-.019.463.463,0,0,0,.312-.575l-.765-2.594,10.463-3.563,1.346,4.553a.462.462,0,1,0,.886-.263Zm-10.19-2.721-.682-1.835a.467.467,0,0,0-.488-.3l-10.18,1.268a2.634,2.634,0,0,1-1.428-.22L38.8,280.089a1.187,1.187,0,0,1,.774-2.233l7.527,1.832a1.643,1.643,0,0,0,1.844,1.685L59,280.176a.463.463,0,0,0,.407-.515.468.468,0,0,0-.513-.406l-10.056,1.2a.737.737,0,0,1-.752-1.043c.671-1.418,2.626-2.663,5.5-3.506a7.111,7.111,0,0,1,4.122.051l5.31,1.641a6.415,6.415,0,0,1,4.24,4.242l.823,2.661-5.475,1.864A.444.444,0,0,0,62.586,286.208Z" transform="translate(-37.199 -254.98)" fill="$$white"/>
</svg>
