<svg width="210" height="65" viewBox="0 0 210 65" fill="none" xmlns="http://www.w3.org/2000/svg">
<path d="M22.278 0H28.673V1.2H27.473C27.262 1.2 26.895 1.443 26.366 1.924C25.837 2.405 25.572 2.783 25.572 3.031V21.4C25.572 21.654 25.837 22.021 26.366 22.507C26.895 22.993 27.266 23.236 27.473 23.236H28.673V24.436H19.238V23.226H20.438C20.649 23.226 21.01 22.983 21.518 22.497C22.026 22.011 22.28 21.644 22.28 21.39V3.608L13.416 24.871L4.558 3.24V21.393C4.558 21.647 4.812 22.014 5.314 22.5C5.816 22.986 6.184 23.229 6.394 23.229H7.594V24.429H0V23.229H1.2C1.454 23.229 1.832 22.986 2.34 22.5C2.848 22.014 3.096 21.647 3.096 21.393V3.035C3.096 2.787 2.842 2.414 2.34 1.928C1.838 1.442 1.458 1.2 1.2 1.2H0V0H7.086L14.431 18.293H14.62L22.278 0ZM37.471 21.96C38.5486 22.0243 39.6227 21.7849 40.571 21.269C41.3593 20.7308 42.0101 20.0149 42.471 19.179H43.486C43.0349 20.7478 42.1717 22.167 40.986 23.289C39.6851 24.3678 38.023 24.9122 36.336 24.812C35.3318 24.8488 34.3329 24.6498 33.4194 24.2309C32.506 23.8121 31.7034 23.185 31.076 22.4C29.76 20.7744 29.0649 18.7339 29.115 16.643C29.0562 15.5235 29.2213 14.4036 29.6008 13.3487C29.9803 12.2939 30.5665 11.3254 31.325 10.5C32.0031 9.77082 32.826 9.19141 33.7412 8.79895C34.6563 8.40648 35.6433 8.20962 36.639 8.221C37.7209 8.19876 38.7962 8.39571 39.8 8.8C40.7125 9.18883 41.5483 9.73743 42.268 10.42L39.962 14.044L39.011 14.103C39.2267 13.0246 39.1616 11.909 38.822 10.863C38.6202 10.3762 38.261 9.97109 37.8018 9.71256C37.3425 9.45404 36.8099 9.35701 36.289 9.437C35.6099 9.39379 34.9314 9.52853 34.3203 9.8279C33.7093 10.1273 33.187 10.5809 32.805 11.144C31.9894 12.4987 31.5928 14.0644 31.665 15.644C31.6195 17.2801 32.1704 18.877 33.215 20.137C33.7401 20.7418 34.3951 21.2201 35.131 21.5361C35.867 21.8522 36.6649 21.9978 37.465 21.962L37.471 21.96ZM53.166 24.428H43.606V23.228H44.827C45.081 23.228 45.459 22.985 45.967 22.499C46.475 22.013 46.723 21.646 46.723 21.392V3.035C46.723 2.787 46.475 2.414 45.967 1.928C45.6734 1.57192 45.2741 1.31839 44.827 1.204H43.606V0H53.165V1.2H51.965C51.711 1.2 51.333 1.443 50.825 1.924C50.317 2.405 50.069 2.783 50.069 3.031V13.031L58.8 3.289C58.967 3.078 58.8 2.679 58.357 2.089C57.914 1.499 57.557 1.203 57.342 1.203H56.168V0H65.025V1.2H63.825C63.2315 1.40506 62.6868 1.73053 62.225 2.156C61.377 2.81 60.875 3.236 60.702 3.393L54.753 9.786L63.3 21.128C63.7144 21.6112 64.192 22.0364 64.72 22.392C65.1443 22.782 65.6554 23.0651 66.211 23.218H67.98C68.3994 23.131 68.7787 22.909 69.06 22.586C69.524 22.159 69.76 21.803 69.76 21.506V11.52C69.76 11.266 69.528 10.926 69.06 10.505C68.7787 10.182 68.3994 9.96 67.98 9.873H67.024V8.673H72.657V21.517C72.657 21.817 72.9 22.17 73.386 22.597C73.6655 22.9033 74.0272 23.1227 74.428 23.229H76.394C76.605 23.229 76.934 23.018 77.404 22.597C77.5862 22.4721 77.7418 22.3123 77.8619 22.127C77.9821 21.9416 78.0643 21.7343 78.104 21.517V11.517C78.104 11.263 77.872 10.923 77.404 10.502C76.936 10.081 76.604 9.87 76.394 9.87H75.379V8.67H80.379L81.011 11.883C81.8695 10.9762 82.7897 10.1299 83.765 9.35C84.7557 8.6052 85.9724 8.22386 87.211 8.27C87.7926 8.25917 88.3705 8.3659 88.9099 8.58378C89.4492 8.80167 89.9391 9.12623 90.35 9.538C90.7829 9.96614 91.122 10.4796 91.3458 11.0458C91.5696 11.612 91.6732 12.2186 91.65 12.827V21.517C91.65 21.817 91.882 22.17 92.35 22.597C92.818 23.024 93.15 23.229 93.36 23.229H94.375V24.429H86.085V23.229H86.96C87.3789 23.1408 87.7579 22.919 88.04 22.597C88.504 22.17 88.74 21.814 88.74 21.517V13.038C88.7708 12.3292 88.5446 11.6332 88.103 11.078C87.8656 10.8142 87.5709 10.6084 87.2415 10.4763C86.9121 10.3442 86.5569 10.2894 86.203 10.316C84.951 10.3542 83.7432 10.7872 82.752 11.553C81.596 12.3737 81.018 13.0597 81.018 13.611V21.518C81.018 21.818 81.25 22.171 81.718 22.598C81.9993 22.921 82.3786 23.1429 82.798 23.23H83.684V24.43H61.029L52.529 12.219L50.061 14.876V21.395C50.061 21.649 50.309 22.016 50.817 22.502C51.325 22.988 51.703 23.231 51.957 23.231H53.157L53.166 24.428ZM61.645 51.972L61.569 51.896C62.3737 52.5713 63.1873 53.2463 64.01 53.921C64.8327 54.5957 65.7077 55.251 66.635 55.887H68.088V57.151H65.431C64.3492 57.1694 63.2741 56.9768 62.266 56.584C61.1893 56.1019 60.2043 55.4367 59.355 54.618C58.3972 55.5825 57.2421 56.3286 55.969 56.805C54.496 57.3173 52.9432 57.5625 51.384 57.529C49.4023 57.539 47.484 56.831 45.984 55.536C45.2075 54.9096 44.5862 54.1123 44.1684 53.2064C43.7505 52.3004 43.5475 51.3103 43.575 50.313C43.5588 48.8296 43.9312 47.3679 44.655 46.073C45.3571 44.8292 46.3411 43.7675 47.528 42.973C46.9594 42.2523 46.4799 41.4656 46.1 40.63C45.7261 39.7514 45.5421 38.8037 45.56 37.849C45.5148 37.1049 45.6325 36.3598 45.9049 35.6659C46.1772 34.9719 46.5977 34.3457 47.137 33.831C48.3428 32.8244 49.8857 32.3129 51.454 32.4C52.3569 32.3695 53.2582 32.4974 54.117 32.778C54.68 33.0094 55.2797 33.1391 55.888 33.161C56.1231 33.167 56.358 33.1452 56.588 33.096C56.7796 33.0331 56.9388 32.8973 57.031 32.718H58.111V38.475H57.031C56.8633 37.2862 56.2912 36.1914 55.411 35.375C54.9203 34.789 54.3049 34.3201 53.6097 34.0024C52.9145 33.6848 52.1572 33.5265 51.393 33.539C50.2831 33.4781 49.1863 33.8023 48.288 34.457C47.911 34.7648 47.6114 35.1568 47.4134 35.6014C47.2154 36.046 47.1245 36.5309 47.148 37.017C47.1412 37.97 47.479 38.8933 48.099 39.617C48.7806 40.4113 49.6519 41.0205 50.632 41.388C52.1913 43.08 53.8783 44.7777 55.693 46.481C57.5077 48.1843 59.2377 49.7777 60.883 51.261C61.3334 50.5388 61.6653 49.7491 61.866 48.922C62.0638 48.0358 62.1597 47.13 62.152 46.222C62.1723 45.7354 62.0889 45.25 61.9076 44.798C61.7262 44.346 61.451 43.9377 61.1 43.6C60.3266 42.9175 59.316 42.5663 58.286 42.622V41.392H66.97V42.532H66.025C65.814 42.532 65.399 42.888 64.788 43.612C64.3332 44.0377 64.0139 44.5879 63.87 45.194V45.259C63.8281 46.4744 63.6153 47.6779 63.238 48.834C62.8751 49.9538 62.3375 51.0091 61.645 51.961V51.972ZM53.355 55.645C54.3543 55.6579 55.3491 55.5076 56.3 55.2C57.1432 54.917 57.9416 54.5149 58.671 54.006L58.482 53.882C56.682 52.276 54.9107 50.6307 53.168 48.946C51.4253 47.2613 49.736 45.4887 48.1 43.628C47.4964 44.2602 47.0051 44.9907 46.647 45.788C46.2702 46.7538 46.0973 47.7871 46.139 48.823C46.1635 49.7288 46.3826 50.6187 46.7816 51.4323C47.1805 52.2458 47.7499 52.964 48.451 53.538C49.7551 54.8383 51.5098 55.5868 53.351 55.628L53.355 55.645ZM70.886 4.812H70.821C70.5582 4.81471 70.2974 4.76558 70.0536 4.66743C69.8097 4.56929 69.5877 4.42404 69.4 4.24C69.2063 4.06416 69.0525 3.84884 68.949 3.60855C68.8455 3.36826 68.7947 3.10858 68.8 2.847V2.787C68.7845 2.51027 68.8303 2.23354 68.934 1.97652C69.0377 1.7195 69.1968 1.48851 69.4 1.3C69.8176 0.954128 70.3428 0.764863 70.885 0.764863C71.4272 0.764863 71.9524 0.954128 72.37 1.3C72.5737 1.48894 72.7331 1.72059 72.8369 1.97835C72.9406 2.23611 72.9861 2.51362 72.97 2.791H72.905C72.948 2.791 72.97 2.791 72.97 2.85C72.9753 3.11158 72.9245 3.37126 72.821 3.61155C72.7175 3.85184 72.5637 4.06716 72.37 4.243C72.0099 4.60622 71.5205 4.81191 71.009 4.815H70.885L70.886 4.812ZM86.953 55.5C88.6894 55.6013 90.4145 55.161 91.89 54.24C93.1669 53.2785 94.187 52.0169 94.86 50.567H96.135C95.4369 52.623 94.1353 54.4209 92.4 55.726C90.6149 57.004 88.4595 57.6607 86.265 57.595C84.6656 57.6523 83.0744 57.3411 81.6145 56.6855C80.1545 56.0299 78.8648 55.0475 77.845 53.814C75.7304 51.2914 74.6054 48.0858 74.68 44.795C74.5947 41.5927 75.6236 38.4601 77.591 35.932C78.5458 34.7297 79.7717 33.7705 81.1685 33.1332C82.5653 32.4958 84.0931 32.1983 85.627 32.265C86.7702 32.2389 87.9086 32.4219 88.986 32.805C89.8922 33.1625 90.8578 33.3457 91.832 33.345C92.1359 33.3599 92.4391 33.3044 92.718 33.183C92.9532 33.0623 93.1667 32.9035 93.35 32.713H94.236V41.327H93.156C92.9734 39.5889 92.2928 37.9406 91.196 36.58C90.6101 35.6773 89.8012 34.9411 88.8475 34.4425C87.8938 33.944 86.8276 33.6999 85.752 33.734C84.8349 33.6854 83.9176 33.8263 83.0574 34.1479C82.1971 34.4694 81.4124 34.9648 80.752 35.603C79.3565 37.283 78.5924 39.398 78.592 41.582V41.458C78.5487 41.9247 78.5153 42.389 78.492 42.851C78.492 43.315 78.46 43.796 78.46 44.304C78.4498 44.9047 78.4715 45.5056 78.525 46.104C78.59 46.714 78.611 47.276 78.649 47.784C78.8174 49.8374 79.6891 51.7698 81.117 53.255C81.8777 54.0179 82.7905 54.6121 83.796 54.9989C84.8015 55.3857 85.8772 55.5564 86.953 55.5V55.5ZM106.936 20C106.974 20.6591 106.865 21.3183 106.619 21.9308C106.372 22.5432 105.994 23.0937 105.51 23.543C104.501 24.4118 103.2 24.8654 101.87 24.812C101.001 24.8383 100.137 24.6763 99.337 24.337C98.7059 24.0294 98.014 23.8671 97.312 23.862C97.0708 23.8388 96.8285 23.8939 96.621 24.019L96.113 24.429H95.378V18.86H96.329C96.5052 19.9454 97.0259 20.9453 97.814 21.712C98.3149 22.2985 98.943 22.763 99.6506 23.0699C100.358 23.3768 101.127 23.5181 101.897 23.483C102.689 23.5241 103.477 23.3485 104.176 22.975C104.446 22.8034 104.664 22.5624 104.808 22.2774C104.953 21.9924 105.018 21.6738 104.997 21.355C105.026 20.9749 104.95 20.5943 104.777 20.2543C104.605 19.9144 104.343 19.6283 104.019 19.427C103.379 19.0333 102.713 18.6832 102.026 18.379C101.432 18.131 100.897 17.898 100.406 17.688C99.915 17.478 99.358 17.245 98.726 16.988C97.8329 16.5744 97.0203 16.0056 96.326 15.308C96.0015 14.9553 95.7503 14.5416 95.5871 14.0909C95.4238 13.6403 95.3517 13.1617 95.375 12.683C95.3356 12.0829 95.4288 11.4815 95.6481 10.9215C95.8675 10.3615 96.2075 9.8567 96.644 9.443C97.4557 8.86679 98.3978 8.50119 99.3857 8.37901C100.374 8.25683 101.376 8.38191 102.304 8.743C102.846 9.01267 103.443 9.15496 104.048 9.159C104.233 9.1641 104.417 9.13003 104.588 9.059C104.744 8.98951 104.87 8.86444 104.939 8.708H105.76V13.569H104.809C104.654 12.6084 104.199 11.7216 103.509 11.036C103.085 10.5205 102.548 10.1102 101.939 9.83709C101.33 9.56401 100.667 9.43563 100 9.462C99.2678 9.40187 98.5382 9.60467 97.942 10.034C97.7284 10.21 97.5576 10.4323 97.4426 10.684C97.3275 10.9357 97.2713 11.2103 97.278 11.487C97.2588 11.7783 97.3128 12.0698 97.435 12.335C97.5573 12.6001 97.7439 12.8305 97.978 13.005C98.5779 13.4209 99.2138 13.7823 99.878 14.085C100.472 14.333 101.028 14.566 101.558 14.776L103.297 15.476C104.205 15.8573 105.04 16.3925 105.765 17.058C106.165 17.4303 106.479 17.8847 106.686 18.39C106.893 18.8952 106.988 19.4394 106.965 19.985L106.936 20ZM111.078 43.164C111.883 43.9499 112.511 44.8982 112.921 45.9459C113.331 46.9936 113.512 48.1166 113.454 49.24C113.512 50.3681 113.33 51.4957 112.92 52.5485C112.511 53.6012 111.883 54.5554 111.078 55.348C109.624 56.7923 107.656 57.6004 105.607 57.595C103.535 57.6101 101.542 56.8019 100.066 55.348C99.2628 54.5544 98.6368 53.5997 98.229 52.5468C97.8212 51.4939 97.6409 50.3666 97.7 49.239C97.6267 47.6552 98.0302 46.0859 98.8583 44.7339C99.6864 43.3818 100.901 42.3093 102.345 41.655C103.789 41.0007 105.397 40.7946 106.959 41.0634C108.522 41.3323 109.968 42.0636 111.11 43.163L111.078 43.164ZM110.316 51.849V51.973C110.359 51.509 110.386 51.044 110.408 50.58C110.43 50.116 110.44 49.651 110.44 49.187C110.44 48.723 110.44 48.274 110.408 47.831C110.376 47.388 110.359 46.972 110.316 46.594C110.218 45.4386 109.739 44.3484 108.955 43.494C108.508 43.0876 107.983 42.7769 107.412 42.5808C106.841 42.3848 106.236 42.3076 105.634 42.354C105.045 42.3124 104.453 42.3922 103.896 42.5882C103.339 42.7843 102.827 43.0926 102.394 43.494C101.619 44.3283 101.14 45.3951 101.033 46.529V46.448C100.949 46.8867 100.896 47.3308 100.876 47.777C100.876 48.241 100.844 48.706 100.844 49.165C100.844 49.624 100.844 50.083 100.876 50.526C100.895 50.9419 100.947 51.3556 101.033 51.763C101.158 52.8921 101.634 53.9535 102.394 54.798C102.818 55.216 103.327 55.5391 103.885 55.746C104.444 55.9528 105.04 56.0387 105.634 55.998C106.244 56.0515 106.859 55.9747 107.437 55.7727C108.015 55.5706 108.544 55.2479 108.988 54.826C109.727 53.994 110.191 52.9539 110.317 51.848L110.316 51.849ZM115.506 24.849C114.507 24.868 113.517 24.6584 112.612 24.2362C111.707 23.814 110.91 23.1904 110.283 22.413C108.913 20.795 108.181 18.7325 108.225 16.613C108.16 14.4418 108.905 12.324 110.315 10.672C110.941 9.90785 111.735 9.29871 112.635 8.8921C113.536 8.4855 114.518 8.29245 115.505 8.328C116.271 8.2853 117.038 8.40787 117.752 8.68738C118.467 8.96689 119.113 9.39682 119.647 9.948C120.638 11.0085 121.214 12.3913 121.267 13.842L121.332 14.982L110.822 15.825C110.843 17.3421 111.376 18.8075 112.334 19.984C112.815 20.6306 113.447 21.15 114.175 21.4973C114.902 21.8446 115.704 22.0092 116.509 21.977C117.597 22.0382 118.68 21.7991 119.641 21.286C120.424 20.7755 121.066 20.0773 121.51 19.255H122.461C122.059 20.8158 121.224 22.2311 120.052 23.338C118.777 24.3866 117.152 24.9133 115.504 24.812L115.506 24.849ZM115.441 9.532C114.751 9.47439 114.058 9.59863 113.43 9.89234C112.803 10.186 112.264 10.639 111.866 11.206C111.153 12.2448 110.747 13.4632 110.694 14.722L118.606 14.047C118.741 12.988 118.621 11.9119 118.255 10.909C117.91 9.97567 116.972 9.50567 115.441 9.499V9.532ZM134.555 55.979C134.809 55.979 135.155 55.758 135.597 55.315C136.039 54.872 136.261 54.526 136.261 54.273V45.626C136.289 44.9515 136.077 44.2889 135.661 43.757C135.416 43.4973 135.115 43.2967 134.781 43.1704C134.447 43.0441 134.089 42.9954 133.733 43.028C132.612 43.0653 131.534 43.4653 130.66 44.168C129.627 44.9313 129.11 45.5647 129.11 46.068V54.293C129.11 54.547 129.331 54.893 129.774 55.335C130.217 55.777 130.546 55.999 130.757 55.999H131.708V57.199H123.608V56H124.494C124.748 56 125.094 55.779 125.536 55.336C125.978 54.893 126.2 54.547 126.2 54.294V45.653C126.235 44.9528 126.01 44.2645 125.568 43.72C125.325 43.4654 125.029 43.2679 124.7 43.1418C124.371 43.0157 124.019 42.9642 123.668 42.991C122.519 43.0276 121.415 43.4504 120.536 44.191C119.503 44.991 118.986 45.666 118.986 46.216V54.316C118.986 54.57 119.207 54.916 119.65 55.358C120.093 55.8 120.444 56.022 120.698 56.022H121.584V57.222H113.484V56.022H114.435C114.646 56.022 114.975 55.801 115.413 55.358C115.851 54.915 116.077 54.569 116.077 54.316V44.238C116.077 43.99 115.856 43.649 115.413 43.228C114.97 42.807 114.646 42.596 114.435 42.596H113.484V41.396H118.345L118.977 44.437C119.906 43.465 120.75 42.6513 121.51 41.996C122.436 41.2878 123.588 40.9402 124.751 41.018C125.745 40.998 126.72 41.297 127.532 41.871C127.936 42.1628 128.275 42.5361 128.526 42.9666C128.777 43.3972 128.935 43.8756 128.99 44.371C129.957 43.442 130.848 42.659 131.647 42.027C132.562 41.3577 133.679 41.0221 134.812 41.076C135.959 41.0477 137.071 41.4682 137.912 42.248C138.348 42.6806 138.686 43.201 138.905 43.7747C139.124 44.3484 139.218 44.9621 139.181 45.575V54.216C139.181 54.47 139.402 54.816 139.845 55.258C140.288 55.7 140.612 55.922 140.823 55.922H141.774V57.122H133.674V55.922L134.555 55.979ZM123.987 11.687C123.723 11.2738 123.391 10.9086 123.004 10.607C122.464 10.143 122.104 9.907 121.924 9.907H121.224V8.668H129.768V9.868H128.758C128.547 9.868 128.272 10.079 127.937 10.5C127.654 10.7946 127.475 11.174 127.429 11.58L131.21 19.363L134.694 11.64C134.696 11.4278 134.655 11.2173 134.573 11.0214C134.491 10.8255 134.371 10.6481 134.219 10.5C133.859 10.0787 133.573 9.868 133.36 9.868H132.32V8.668H138.715V9.868H138.015C137.804 9.868 137.475 10.089 137.032 10.532C136.685 10.8479 136.396 11.2226 136.179 11.639L130.779 23.094L126.134 32.022L124.757 31.322L129.564 22.648L123.987 11.687ZM152.66 40.987C153.543 40.9522 154.42 41.1361 155.214 41.5223C156.009 41.9086 156.695 42.4853 157.213 43.201C158.37 44.9148 158.938 46.958 158.833 49.023C158.919 51.1967 158.274 53.3365 157 55.1C156.474 55.852 155.773 56.4644 154.957 56.8842C154.141 57.3039 153.235 57.5184 152.317 57.509C151.156 57.5678 150.004 57.2922 148.995 56.715C148.103 56.1114 147.374 55.297 146.873 54.344V61.938C146.873 62.238 147.105 62.591 147.573 63.018C148.041 63.445 148.373 63.65 148.588 63.65H149.6V64.81H141.261V63.61H142.276C142.685 63.5237 143.052 63.3009 143.318 62.978C143.67 62.7171 143.908 62.3301 143.982 61.898V44.238C143.982 43.99 143.761 43.649 143.318 43.228C143.052 42.9052 142.685 42.6823 142.276 42.596H141.261V41.327H146.386L146.894 44.621C147.471 43.51 148.306 42.5541 149.33 41.834C150.328 41.2188 151.485 40.9107 152.657 40.948L152.66 40.987ZM155.825 51.621V51.68L155.949 50.416C155.992 49.996 156.014 49.5742 156.014 49.152C156.015 48.782 155.993 48.4124 155.949 48.045C155.906 47.683 155.863 47.338 155.825 46.997C155.721 45.8902 155.278 44.8425 154.556 43.997C154.21 43.634 153.789 43.3497 153.323 43.1633C152.858 42.977 152.357 42.893 151.856 42.917C151.272 42.8923 150.689 42.989 150.145 43.2009C149.6 43.4127 149.105 43.7352 148.691 44.148C147.866 45.016 147.259 46.0675 146.92 47.216V51.331C146.913 51.9214 147.028 52.5068 147.257 53.0512C147.485 53.5955 147.823 54.0873 148.249 54.496C148.669 54.9275 149.174 55.2681 149.731 55.4967C150.288 55.7253 150.887 55.8371 151.489 55.825H151.554C152.115 55.8679 152.679 55.7849 153.204 55.5821C153.729 55.3794 154.202 55.0619 154.589 54.653C155.297 53.7741 155.728 52.7044 155.826 51.58L155.825 51.621ZM191.584 54.278C191.584 54.532 191.816 54.878 192.284 55.32C192.752 55.762 193.084 55.984 193.294 55.984H194.245V57.184H185.955V55.984H186.873C187.089 55.984 187.413 55.763 187.888 55.32C188.363 54.877 188.588 54.531 188.588 54.278V45.7C188.61 45.0082 188.399 44.3291 187.988 43.772C187.763 43.4992 187.476 43.2847 187.151 43.1465C186.825 43.0082 186.471 42.9505 186.119 42.978C184.863 43.0191 183.653 43.4622 182.668 44.242C181.505 45.092 180.926 45.767 180.929 46.267V54.24C180.929 54.54 181.161 54.893 181.629 55.32C181.91 55.643 182.29 55.865 182.709 55.952H183.638V57.152H170.191L169.748 53.863C169.082 54.738 168.342 55.5531 167.534 56.299C166.712 57.0716 165.621 57.4922 164.493 57.471C163.962 57.4753 163.436 57.3711 162.946 57.1647C162.457 56.9584 162.015 56.6543 161.647 56.271C161.246 55.8636 160.932 55.3784 160.726 54.8452C160.52 54.3121 160.425 53.7423 160.447 53.171C160.387 52.4999 160.518 51.8254 160.826 51.226C161.134 50.6266 161.605 50.1269 162.186 49.785C163.244 49.1725 164.384 48.7142 165.572 48.424L169.687 47.598L169.752 45.698C169.799 44.7424 169.483 43.8044 168.866 43.073C168.455 42.7068 167.973 42.4303 167.449 42.261C166.925 42.0918 166.372 42.0335 165.825 42.09C165.294 42.0263 164.756 42.1106 164.27 42.3337C163.784 42.5568 163.369 42.9099 163.071 43.354C162.834 43.8765 162.725 44.448 162.753 45.0211C162.782 45.5942 162.946 46.1522 163.233 46.649H162.093L159.933 43.484C160.798 42.633 161.829 41.969 162.962 41.5333C164.094 41.0975 165.305 40.8993 166.517 40.951C168.067 40.8981 169.594 41.3306 170.886 42.188C171.462 42.5834 171.926 43.1194 172.236 43.7452C172.546 44.3709 172.691 45.0655 172.657 45.763V54.242C172.657 54.496 172.889 54.831 173.357 55.252C173.825 55.673 174.157 55.889 174.367 55.889H176.267C176.687 55.8018 177.067 55.5778 177.347 55.252C177.811 54.831 178.047 54.496 178.047 54.242V44.238C178.047 43.99 177.815 43.649 177.347 43.228C177.066 42.905 176.686 42.6831 176.267 42.596H175.316V41.327H180.316L180.948 44.621C181.794 43.7209 182.696 42.8749 183.648 42.088C184.645 41.3325 185.876 40.9504 187.126 41.008C187.706 40.9975 188.283 41.104 188.821 41.3211C189.359 41.5383 189.848 41.8617 190.259 42.272C190.693 42.7005 191.032 43.2148 191.256 43.782C191.48 44.3491 191.583 44.9567 191.559 45.566L191.584 54.278ZM169.748 48.667L165.967 49.618C165.155 49.7501 164.415 50.1631 163.877 50.785C163.485 51.352 163.285 52.0291 163.304 52.718V52.777C163.3 53.0995 163.359 53.4197 163.479 53.7191C163.6 54.0184 163.778 54.291 164.004 54.521C164.222 54.7555 164.488 54.9411 164.783 55.0659C165.078 55.1907 165.396 55.2517 165.716 55.245H165.808C166.656 55.2108 167.464 54.8758 168.087 54.3C168.729 53.7862 169.277 53.165 169.707 52.464L169.748 48.667ZM210 41.392V42.592H209.238C209.071 42.592 208.763 42.813 208.32 43.256C207.984 43.5768 207.676 43.9261 207.4 44.3L202.086 55.82L197.339 64.683L196.01 63.983L200.757 55.309L195.189 44.362C194.923 43.9502 194.591 43.5853 194.206 43.282C193.666 42.818 193.331 42.582 193.164 42.582H192.4V41.382H200.944V42.582H200C199.789 42.582 199.5 42.793 199.147 43.214C198.85 43.5028 198.66 43.8834 198.607 44.294L202.388 52.082L205.888 44.272C205.888 44.0688 205.846 43.8678 205.765 43.6818C205.683 43.4958 205.563 43.329 205.413 43.192C205.056 42.771 204.77 42.56 204.56 42.56H203.55V41.392H210Z" fill="$white"/>
</svg>
